# xmcd
#
# Track frame offsets:
#	150
#	15636
#	31343
#	48842
#	60376
#	76351
#	93035
#	109316
#	125430
#	141364
#
# Disc length: 2054 seconds
#
# Revision: 2
# Processed by: cddbd v1.5.2PL0 Copyright (c) Steve Scherf et al.
# Submitted via: audiograbber 1.81.02
#
DISCID=7808040a
DTITLE=Bluegrass Worship Band - Bluegrass Worship - CD1
DYEAR=2008
DGENRE=Country
TTITLE0=Happy Day
TTITLE1=Beautiful One
TTITLE2=Here I Am To Worship
TTITLE3=Leaning On The Everlasting Arms
TTITLE4=Want What You Got
TTITLE5=Jesu, Joy Of Man's Desiring
TTITLE6=Rock Of Ages
TTITLE7=Undignified
TTITLE8=Just One Piece At A Time
TTITLE9=What A Friend We Have In Jesus
EXTD=www.gerth.de - Art.-Nr. 104679
EXTT0=
EXTT1=
EXTT2=
EXTT3=
EXTT4=
EXTT5=
EXTT6=
EXTT7=
EXTT8=
EXTT9=
PLAYORDER=
